<svg width="80" height="80" xmlns="http://www.w3.org/2000/svg">
 <!-- Created with Method Draw - http://github.com/duopixel/Method-Draw/ -->

 <g>
  <title>background</title>
  <rect fill="none" id="canvas_background" height="82" width="82" y="-1" x="-1"/>
  <g display="none" id="canvasGrid">
   <rect fill="url(#gridpattern)" stroke-width="0" y="0" x="0" height="100%" width="100%" id="svg_3"/>
  </g>
 </g>
 <g>
  <title>Layer 1</title>
  <ellipse stroke="#000" ry="40" rx="40" id="svg_1" cy="40" cx="40" stroke-width="0" fill="#ffc93c"/>
  <path stroke="#000" fill="#f7f7f7" stroke-width="0" stroke-opacity="null" d="m44.126775,71.150512l-11.310408,0l0,-10.151742l11.310408,0l0,10.151742zm0,-20.99126l0,3.35507l-11.310408,0l0,-4.133889c0,-12.474469 15.167498,-14.454047 15.167498,-23.320088c0,-4.042737 -3.861972,-7.139583 -8.917884,-7.139583c-5.239142,0 -9.834303,3.613082 -9.834303,3.613082l-6.439343,-7.488945c0,0 6.346927,-6.195413 17.285755,-6.195413c10.390783,0 20.038602,6.022409 20.038602,16.175639c0.004848,14.203542 -15.989916,15.841544 -15.989916,25.134121l0,0.000004l0,0z" id="svg_7"/>
 </g>
</svg>